G04 DipTrace 2.4.0.2*
%INtopiconf.GBL*%
%MOMM*%
%ADD14C,0.2*%
%ADD16C,1.5*%
%ADD17R,1.5X1.5*%
%ADD18C,1.524*%
%FSLAX53Y53*%
G04*
G71*
G90*
G75*
G01*
%LNBottom*%
%LPD*%
X11280Y21577D2*
D14*
X10873Y21170D1*
X11887Y21619D2*
X10787Y20518D1*
X12453Y21619D2*
X10787Y19952D1*
X13019Y21619D2*
X10787Y19386D1*
X13584Y21619D2*
X10787Y18821D1*
X14150Y21619D2*
X12241Y19709D1*
X11426Y18894D2*
X10787Y18255D1*
X14716Y21619D2*
X12824Y19727D1*
X11408Y18311D2*
X10787Y17689D1*
X15282Y21619D2*
X13217Y19554D1*
X11580Y17917D2*
X10787Y17124D1*
X15847Y21619D2*
X13504Y19276D1*
X11859Y17630D2*
X10787Y16558D1*
X16413Y21619D2*
X13686Y18891D1*
X12243Y17449D2*
X10787Y15992D1*
X16979Y21619D2*
X13692Y18332D1*
X12802Y17442D2*
X12576Y17216D1*
X11379Y16019D2*
X10787Y15426D1*
X17544Y21619D2*
X13040Y17115D1*
X11481Y15555D2*
X10787Y14861D1*
X18110Y21619D2*
X13376Y16885D1*
X11711Y15219D2*
X10787Y14295D1*
X18676Y21619D2*
X13611Y16553D1*
X12040Y14983D2*
X10787Y13729D1*
X19241Y21619D2*
X13723Y16100D1*
X12495Y14872D2*
X12256Y14633D1*
X11421Y13798D2*
X10787Y13164D1*
X19807Y21619D2*
X12833Y14644D1*
X11410Y13222D2*
X10787Y12598D1*
X20373Y21619D2*
X13224Y14470D1*
X11585Y12831D2*
X10787Y12032D1*
X20938Y21619D2*
X13509Y14189D1*
X11865Y12545D2*
X10787Y11467D1*
X21504Y21619D2*
X13688Y13802D1*
X12252Y12366D2*
X10840Y10954D1*
X22070Y21619D2*
X13688Y13237D1*
X12818Y12366D2*
X11237Y10786D1*
X22635Y21619D2*
X11803Y10786D1*
X23201Y21619D2*
X18806Y17223D1*
X17723Y16141D2*
X12369Y10786D1*
X23767Y21619D2*
X19307Y17159D1*
X17785Y15637D2*
X12934Y10786D1*
X24332Y21619D2*
X19667Y16953D1*
X17991Y15277D2*
X13500Y10786D1*
X24898Y21619D2*
X19926Y16646D1*
X18298Y15018D2*
X14066Y10786D1*
X25464Y21619D2*
X20072Y16226D1*
X18718Y14872D2*
X14631Y10786D1*
X26030Y21619D2*
X19977Y15566D1*
X19381Y14970D2*
X15197Y10786D1*
X26533Y21557D2*
X15763Y10786D1*
X26837Y21295D2*
X25296Y19754D1*
X24079Y18537D2*
X16327Y10785D1*
X26998Y20890D2*
X25756Y19648D1*
X24188Y18080D2*
X16893Y10785D1*
X27016Y20342D2*
X26088Y19414D1*
X24422Y17748D2*
X17459Y10785D1*
X27016Y19777D2*
X26317Y19078D1*
X24756Y17516D2*
X18024Y10785D1*
X27016Y19211D2*
X26423Y18618D1*
X25217Y17412D2*
X24987Y17182D1*
X24113Y16307D2*
X18590Y10785D1*
X27016Y18645D2*
X25551Y17180D1*
X24115Y15744D2*
X19156Y10785D1*
X27016Y18080D2*
X25937Y17001D1*
X24294Y15357D2*
X19721Y10785D1*
X27016Y17514D2*
X26218Y16716D1*
X24579Y15077D2*
X24178Y14676D1*
X24081Y14579D2*
X20287Y10785D1*
X27016Y16948D2*
X26392Y16325D1*
X24970Y14902D2*
X24744Y14676D1*
X24079Y14012D2*
X20853Y10785D1*
X27016Y16383D2*
X26381Y15748D1*
X25549Y14915D2*
X25310Y14676D1*
X24079Y13446D2*
X21418Y10785D1*
X27016Y15817D2*
X25875Y14676D1*
X24079Y12880D2*
X21984Y10785D1*
X27016Y15251D2*
X26423Y14659D1*
X24097Y12332D2*
X22550Y10785D1*
X27016Y14685D2*
X26423Y14093D1*
X24663Y12332D2*
X23115Y10785D1*
X27016Y14120D2*
X26423Y13527D1*
X25228Y12332D2*
X23681Y10785D1*
X27016Y13554D2*
X26423Y12961D1*
X25794Y12332D2*
X24247Y10785D1*
X27016Y12988D2*
X26423Y12396D1*
X26359Y12332D2*
X24813Y10785D1*
X27016Y12423D2*
X25378Y10785D1*
X27016Y11857D2*
X25944Y10785D1*
X27016Y11291D2*
X26510Y10785D1*
X26523Y21577D2*
X26930Y21170D1*
X25915Y21619D2*
X27016Y20518D1*
X25350Y21619D2*
X27016Y19952D1*
X24784Y21619D2*
X27016Y19386D1*
X24218Y21619D2*
X27016Y18821D1*
X23652Y21619D2*
X25562Y19709D1*
X26377Y18894D2*
X27016Y18255D1*
X23087Y21619D2*
X24979Y19727D1*
X26395Y18311D2*
X27016Y17689D1*
X22521Y21619D2*
X24585Y19554D1*
X26222Y17917D2*
X27016Y17124D1*
X21955Y21619D2*
X24298Y19276D1*
X25944Y17630D2*
X27016Y16558D1*
X21390Y21619D2*
X24117Y18891D1*
X25559Y17449D2*
X27016Y15992D1*
X20824Y21619D2*
X24110Y18332D1*
X25000Y17442D2*
X25226Y17216D1*
X26423Y16019D2*
X27016Y15426D1*
X20258Y21619D2*
X24762Y17115D1*
X26322Y15555D2*
X27016Y14861D1*
X19693Y21619D2*
X24426Y16885D1*
X26092Y15219D2*
X27016Y14295D1*
X19127Y21619D2*
X24192Y16553D1*
X25763Y14983D2*
X26070Y14675D1*
X26423Y14322D2*
X27016Y13729D1*
X18561Y21619D2*
X24079Y16100D1*
X25308Y14872D2*
X25505Y14675D1*
X26423Y13756D2*
X27016Y13164D1*
X17996Y21619D2*
X24939Y14675D1*
X26423Y13191D2*
X27016Y12598D1*
X17430Y21619D2*
X24373Y14675D1*
X26423Y12625D2*
X27016Y12032D1*
X16864Y21619D2*
X24079Y14403D1*
X26152Y12331D2*
X27016Y11467D1*
X16299Y21619D2*
X24079Y13838D1*
X25586Y12331D2*
X26963Y10954D1*
X15733Y21619D2*
X24079Y13272D1*
X25020Y12331D2*
X26565Y10786D1*
X15167Y21619D2*
X24079Y12706D1*
X24455Y12331D2*
X26000Y10786D1*
X14601Y21619D2*
X18997Y17223D1*
X20079Y16141D2*
X25434Y10786D1*
X14036Y21619D2*
X18495Y17159D1*
X20017Y15637D2*
X24868Y10786D1*
X13470Y21619D2*
X18135Y16953D1*
X19812Y15277D2*
X24303Y10786D1*
X12904Y21619D2*
X17877Y16646D1*
X19505Y15018D2*
X23737Y10786D1*
X12339Y21619D2*
X17731Y16226D1*
X19085Y14872D2*
X23171Y10786D1*
X11773Y21619D2*
X17826Y15566D1*
X18422Y14970D2*
X22605Y10786D1*
X11269Y21557D2*
X22040Y10786D1*
X10966Y21295D2*
X12506Y19754D1*
X13723Y18537D2*
X21475Y10785D1*
X10804Y20890D2*
X12047Y19648D1*
X13615Y18080D2*
X20910Y10785D1*
X10787Y20342D2*
X11715Y19414D1*
X13381Y17748D2*
X20344Y10785D1*
X10787Y19777D2*
X11485Y19078D1*
X13047Y17516D2*
X19778Y10785D1*
X10787Y19211D2*
X11379Y18618D1*
X12585Y17412D2*
X12815Y17182D1*
X13690Y16307D2*
X19213Y10785D1*
X10787Y18645D2*
X12252Y17180D1*
X13688Y15744D2*
X18647Y10785D1*
X10787Y18080D2*
X11865Y17001D1*
X13509Y15357D2*
X18081Y10785D1*
X10787Y17514D2*
X11585Y16716D1*
X13224Y15077D2*
X17516Y10785D1*
X10787Y16948D2*
X11410Y16325D1*
X12833Y14902D2*
X16950Y10785D1*
X10787Y16383D2*
X11421Y15748D1*
X12254Y14915D2*
X12495Y14674D1*
X13723Y13446D2*
X16384Y10785D1*
X10787Y15817D2*
X12040Y14563D1*
X13611Y12993D2*
X15818Y10785D1*
X10787Y15251D2*
X11711Y14327D1*
X13376Y12661D2*
X15253Y10785D1*
X10787Y14685D2*
X11481Y13991D1*
X13038Y12434D2*
X14687Y10785D1*
X10787Y14120D2*
X11379Y13527D1*
X12574Y12332D2*
X14121Y10785D1*
X10787Y13554D2*
X13556Y10785D1*
X10787Y12988D2*
X12990Y10785D1*
X10787Y12423D2*
X12424Y10785D1*
X10787Y11857D2*
X11859Y10785D1*
X10787Y11291D2*
X11293Y10785D1*
X13705Y18484D2*
X13671Y18287D1*
X13603Y18099D1*
X13504Y17926D1*
X13377Y17772D1*
X13225Y17642D1*
X13053Y17540D1*
X12866Y17469D1*
X12670Y17432D1*
X12470Y17429D1*
X12273Y17460D1*
X12084Y17524D1*
X11909Y17620D1*
X11753Y17745D1*
X11621Y17895D1*
X11516Y18065D1*
X11442Y18251D1*
X11401Y18446D1*
X11395Y18646D1*
X11423Y18844D1*
X11484Y19034D1*
X11577Y19210D1*
X11700Y19368D1*
X11847Y19503D1*
X12016Y19610D1*
X12200Y19687D1*
X12395Y19731D1*
X12594Y19741D1*
X12793Y19716D1*
X12984Y19658D1*
X13162Y19568D1*
X13322Y19448D1*
X13459Y19303D1*
X13569Y19136D1*
X13649Y18953D1*
X13696Y18759D1*
X13709Y18584D1*
X13705Y18484D1*
Y15944D2*
X13671Y15747D1*
X13603Y15559D1*
X13504Y15386D1*
X13377Y15232D1*
X13225Y15102D1*
X13053Y15000D1*
X12866Y14929D1*
X12670Y14892D1*
X12470Y14889D1*
X12273Y14920D1*
X12084Y14984D1*
X11909Y15080D1*
X11753Y15205D1*
X11621Y15355D1*
X11516Y15525D1*
X11442Y15711D1*
X11401Y15906D1*
X11395Y16106D1*
X11423Y16304D1*
X11484Y16494D1*
X11577Y16670D1*
X11700Y16828D1*
X11847Y16963D1*
X12016Y17070D1*
X12200Y17147D1*
X12395Y17191D1*
X12594Y17201D1*
X12793Y17176D1*
X12984Y17118D1*
X13162Y17028D1*
X13322Y16908D1*
X13459Y16763D1*
X13569Y16596D1*
X13649Y16413D1*
X13696Y16219D1*
X13709Y16044D1*
X13705Y15944D1*
Y13404D2*
X13671Y13207D1*
X13603Y13019D1*
X13504Y12846D1*
X13377Y12692D1*
X13225Y12562D1*
X13053Y12460D1*
X12866Y12389D1*
X12670Y12352D1*
X12470Y12349D1*
X12273Y12380D1*
X12084Y12444D1*
X11909Y12540D1*
X11753Y12665D1*
X11621Y12815D1*
X11516Y12985D1*
X11442Y13171D1*
X11401Y13366D1*
X11395Y13566D1*
X11423Y13764D1*
X11484Y13954D1*
X11577Y14130D1*
X11700Y14288D1*
X11847Y14423D1*
X12016Y14530D1*
X12200Y14607D1*
X12395Y14651D1*
X12594Y14661D1*
X12793Y14636D1*
X12984Y14578D1*
X13162Y14488D1*
X13322Y14368D1*
X13459Y14223D1*
X13569Y14056D1*
X13649Y13873D1*
X13696Y13679D1*
X13709Y13504D1*
X13705Y13404D1*
X26405Y18484D2*
X26371Y18287D1*
X26303Y18099D1*
X26204Y17926D1*
X26077Y17772D1*
X25925Y17642D1*
X25753Y17540D1*
X25566Y17469D1*
X25370Y17432D1*
X25170Y17429D1*
X24973Y17460D1*
X24784Y17524D1*
X24609Y17620D1*
X24453Y17745D1*
X24321Y17895D1*
X24216Y18065D1*
X24142Y18251D1*
X24101Y18446D1*
X24095Y18646D1*
X24123Y18844D1*
X24184Y19034D1*
X24277Y19210D1*
X24400Y19368D1*
X24547Y19503D1*
X24716Y19610D1*
X24900Y19687D1*
X25095Y19731D1*
X25294Y19741D1*
X25493Y19716D1*
X25684Y19658D1*
X25862Y19568D1*
X26022Y19448D1*
X26159Y19303D1*
X26269Y19136D1*
X26349Y18953D1*
X26396Y18759D1*
X26409Y18584D1*
X26405Y18484D1*
Y15944D2*
X26371Y15747D1*
X26303Y15559D1*
X26204Y15386D1*
X26077Y15232D1*
X25925Y15102D1*
X25753Y15000D1*
X25566Y14929D1*
X25370Y14892D1*
X25170Y14889D1*
X24973Y14920D1*
X24784Y14984D1*
X24609Y15080D1*
X24453Y15205D1*
X24321Y15355D1*
X24216Y15525D1*
X24142Y15711D1*
X24101Y15906D1*
X24095Y16106D1*
X24123Y16304D1*
X24184Y16494D1*
X24277Y16670D1*
X24400Y16828D1*
X24547Y16963D1*
X24716Y17070D1*
X24900Y17147D1*
X25095Y17191D1*
X25294Y17201D1*
X25493Y17176D1*
X25684Y17118D1*
X25862Y17028D1*
X26022Y16908D1*
X26159Y16763D1*
X26269Y16596D1*
X26349Y16413D1*
X26396Y16219D1*
X26409Y16044D1*
X26405Y15944D1*
X24193Y14662D2*
X26409D1*
Y12346D1*
X24093D1*
Y14662D1*
X24193D1*
X20067Y15944D2*
X20033Y15747D1*
X19966Y15559D1*
X19868Y15385D1*
X19742Y15230D1*
X19591Y15099D1*
X19420Y14995D1*
X19234Y14922D1*
X19039Y14882D1*
X18839Y14875D1*
X18641Y14903D1*
X18451Y14964D1*
X18274Y15056D1*
X18115Y15177D1*
X17979Y15324D1*
X17870Y15491D1*
X17791Y15675D1*
X17744Y15869D1*
X17732Y16068D1*
X17753Y16267D1*
X17807Y16459D1*
X17894Y16639D1*
X18010Y16802D1*
X18152Y16942D1*
X18316Y17057D1*
X18496Y17141D1*
X18689Y17194D1*
X18888Y17214D1*
X19087Y17199D1*
X19281Y17151D1*
X19464Y17070D1*
X19630Y16959D1*
X19775Y16822D1*
X19895Y16662D1*
X19985Y16484D1*
X20044Y16293D1*
X20070Y16095D1*
X20067Y15944D1*
X10800Y20992D2*
X10771Y20758D1*
X10773Y11187D1*
X10774Y11064D1*
X10809Y10958D1*
X10874Y10871D1*
X10963Y10807D1*
X11066Y10773D1*
X11585Y10771D1*
X26616Y10773D1*
X26739Y10774D1*
X26844Y10809D1*
X26932Y10874D1*
X26996Y10963D1*
X27029Y11066D1*
X27031Y11585D1*
Y20763D1*
X27003Y20990D1*
X26936Y21176D1*
X26831Y21341D1*
X26692Y21480D1*
X26526Y21585D1*
X26388Y21634D1*
X11416D1*
X11276Y21584D1*
X11108Y21478D1*
X10970Y21339D1*
X10865Y21173D1*
X10800Y20989D1*
D16*
X12551Y18584D3*
Y16044D3*
Y13504D3*
X25251Y18584D3*
Y16044D3*
D17*
Y13504D3*
D18*
X18901Y16044D3*
M02*
