G04 DipTrace 2.4.0.2*
%INtopiconf.GTO*%
%MOMM*%
%ADD10C,0.25*%
%ADD12C,0.076*%
%ADD19O,0.601X0.6*%
%ADD34C,0.157*%
%FSLAX53Y53*%
G04*
G71*
G90*
G75*
G01*
%LNTopSilk*%
%LPD*%
X20899Y12883D2*
D10*
Y11584D1*
X21602Y18544D2*
X16201D1*
X21602Y13544D2*
X16201D1*
D19*
X15185Y18696D3*
X19209Y21683D2*
D12*
X19361D1*
X19176Y21607D2*
X19380D1*
X19665D2*
X20349D1*
X20729D2*
X20957D1*
X19152Y21531D2*
X19440D1*
X19518D2*
X20384D1*
X20709D2*
X20976D1*
X19233Y21455D2*
X20406D1*
X20697D2*
X21029D1*
X19342Y21379D2*
X20420D1*
X20741D2*
X21087D1*
X19460Y21303D2*
X19700D1*
X19781D2*
X20441D1*
X20806D2*
X21132D1*
X19584Y21227D2*
X20474D1*
X20881D2*
X21164D1*
X19758Y21151D2*
X20558D1*
X20617D2*
X21092D1*
X20023Y21075D2*
X20990D1*
X20349Y20999D2*
X20864D1*
X19969Y20923D2*
X20729D1*
X21413D2*
D3*
X20007Y20847D2*
X20808D1*
X21383D2*
X21489D1*
X20048Y20771D2*
X20900D1*
X21345D2*
X21562D1*
X19665Y20695D2*
D3*
X19969D2*
D3*
X20082D2*
X21018D1*
X21288D2*
X21650D1*
X19594Y20619D2*
X19741D1*
X19898D2*
X19969D1*
X20100D2*
X21169D1*
X21206D2*
X21735D1*
X19513Y20543D2*
X19969D1*
X20105D2*
X20337D1*
X20504D2*
X21803D1*
X19563Y20467D2*
X20004D1*
X20079D2*
X20315D1*
X20517D2*
X21355D1*
X21489D2*
X21812D1*
X19619Y20391D2*
X20279D1*
X20548D2*
X20840D1*
X20921D2*
X21310D1*
X21565D2*
X21793D1*
X19693Y20315D2*
X20224D1*
X20598D2*
X21313D1*
X19787Y20239D2*
X20142D1*
X20661D2*
X21335D1*
X22021D2*
X22173D1*
X17689Y20163D2*
X17841D1*
X19893D2*
X20045D1*
X20729D2*
X21375D1*
X21889D2*
X22345D1*
X17689Y20087D2*
X17881D1*
X20691D2*
X21433D1*
X21785D2*
X22484D1*
X15637Y20011D2*
X15789D1*
X17689D2*
X17917D1*
X20659D2*
X21511D1*
X21736D2*
X21807D1*
X22007D2*
X22111D1*
X22298D2*
X22584D1*
X15585Y19935D2*
X15840D1*
X20630D2*
X20881D1*
X21109D2*
X21608D1*
X21689D2*
X21909D1*
X21980D2*
X22137D1*
X22399D2*
X22657D1*
X15536Y19859D2*
X15889D1*
X16245D2*
X16549D1*
X16853D2*
X17385D1*
X17765D2*
X17841D1*
X18221D2*
X18525D1*
X18677D2*
X18829D1*
X19209D2*
X19285D1*
X19589D2*
X19893D1*
X20609D2*
X20805D1*
X21185D2*
X22173D1*
X22480D2*
X22682D1*
X15524Y19783D2*
X15902D1*
X16172D2*
X16639D1*
X16839D2*
X17449D1*
X17765D2*
X17841D1*
X18139D2*
X18829D1*
X19209D2*
X19285D1*
X19528D2*
X19933D1*
X20598D2*
X20918D1*
X21261D2*
X22026D1*
X22553D2*
X22695D1*
X15555Y19707D2*
X15871D1*
X16109D2*
X16324D1*
X16469D2*
X16741D1*
X16812D2*
X17503D1*
X17765D2*
X17841D1*
X18076D2*
X18829D1*
X19208D2*
X19285D1*
X19478D2*
X19969D1*
X20624D2*
X21020D1*
X21340D2*
X21869D1*
X22187D2*
X22700D1*
X15589Y19631D2*
X15836D1*
X16064D2*
X16264D1*
X16530D2*
X17006D1*
X17368D2*
X17544D1*
X17765D2*
X17841D1*
X18035D2*
X18239D1*
X18677D2*
X18830D1*
X19205D2*
X19285D1*
X19465D2*
X19665D1*
X20663D2*
X21071D1*
X21432D2*
X22697D1*
X15613Y19555D2*
X15812D1*
X16034D2*
X16219D1*
X16575D2*
X17010D1*
X17409D2*
X17574D1*
X17765D2*
X17841D1*
X18008D2*
X18195D1*
X18680D2*
X18838D1*
X19195D2*
X19285D1*
X19502D2*
X19796D1*
X20704D2*
X21086D1*
X21550D2*
X22684D1*
X15627Y19479D2*
X15802D1*
X16033D2*
X16226D1*
X16568D2*
X17045D1*
X17437D2*
X17565D1*
X17765D2*
X17841D1*
X18012D2*
X18202D1*
X18690D2*
X18859D1*
X19139D2*
X19285D1*
X19612D2*
X19899D1*
X20743D2*
X21072D1*
X21701D2*
X22625D1*
X15636Y19403D2*
X15801D1*
X16065D2*
X16286D1*
X16508D2*
X17164D1*
X17231D2*
X17539D1*
X17765D2*
X17841D1*
X18033D2*
X18262D1*
X18711D2*
X18948D1*
X18996D2*
X19285D1*
X19741D2*
X19941D1*
X20776D2*
X21053D1*
X21869D2*
X22553D1*
X15650Y19327D2*
X15830D1*
X15941D2*
D3*
X16115D2*
X16372D1*
X16422D2*
X16701D1*
X16853D2*
X17501D1*
X17765D2*
X17841D1*
X18074D2*
X18348D1*
X18449D2*
X18601D1*
X18742D2*
X19285D1*
X19579D2*
X19949D1*
X20805D2*
X21033D1*
X15677Y19251D2*
X15941D1*
X16177D2*
X16625D1*
X16853D2*
X17400D1*
X17765D2*
X17841D1*
X18140D2*
X18565D1*
X18783D2*
X19285D1*
X19437D2*
X19925D1*
X15713Y19175D2*
X15941D1*
X16245D2*
X16549D1*
X16853D2*
X17271D1*
X17765D2*
X17841D1*
X18221D2*
X18525D1*
X18829D2*
X19057D1*
X19209D2*
X19285D1*
X19513D2*
X19893D1*
X16853Y19099D2*
X17152D1*
X16853Y19023D2*
X17060D1*
X16853Y18947D2*
X17029D1*
X16853Y18871D2*
X17005D1*
X19209Y21683D2*
X19176Y21607D1*
X19152Y21531D1*
X19233Y21455D1*
X19342Y21379D1*
X19460Y21303D1*
X19584Y21227D1*
X19758Y21151D1*
X20023Y21075D1*
X20349Y20999D1*
X19969Y20923D1*
X20007Y20847D1*
X20048Y20771D1*
X20082Y20695D1*
X20100Y20619D1*
X20105Y20543D1*
X20079Y20467D1*
X20045Y20391D1*
X19361Y21683D2*
X19380Y21607D1*
X19440Y21531D1*
X19513Y21455D1*
X19665Y21607D2*
X19518Y21531D1*
X19361Y21455D1*
X20349Y21607D2*
X20384Y21531D1*
X20406Y21455D1*
X20420Y21379D1*
X20441Y21303D1*
X20474Y21227D1*
X20558Y21151D1*
X20653Y21075D1*
X20729Y21607D2*
X20709Y21531D1*
X20697Y21455D1*
X20741Y21379D1*
X20806Y21303D1*
X20881Y21227D1*
X20617Y21151D1*
X20349Y21075D1*
X20957Y21607D2*
X20976Y21531D1*
X21029Y21455D1*
X21087Y21379D1*
X21132Y21303D1*
X21164Y21227D1*
X21092Y21151D1*
X20990Y21075D1*
X20864Y20999D1*
X20729Y20923D1*
X20808Y20847D1*
X20900Y20771D1*
X21018Y20695D1*
X21169Y20619D1*
X21337Y20543D1*
X19741Y21379D2*
X19700Y21303D1*
X19665Y21227D1*
X19741Y21379D2*
X19781Y21303D1*
X19817Y21227D1*
X21413Y20923D2*
X21383Y20847D1*
X21345Y20771D1*
X21288Y20695D1*
X21206Y20619D1*
X21109Y20543D1*
X21489Y20847D2*
X21562Y20771D1*
X21650Y20695D1*
X21735Y20619D1*
X21803Y20543D1*
X21812Y20467D1*
X21793Y20391D1*
X19665Y20695D2*
X19594Y20619D1*
X19513Y20543D1*
X19563Y20467D1*
X19619Y20391D1*
X19693Y20315D1*
X19787Y20239D1*
X19893Y20163D1*
X19969Y20695D2*
X19898Y20619D1*
X19817Y20543D1*
X19741Y20619D2*
X19817Y20543D1*
X19969D2*
X20004Y20467D1*
X20045Y20391D1*
X20349Y20619D2*
X20337Y20543D1*
X20315Y20467D1*
X20279Y20391D1*
X20224Y20315D1*
X20142Y20239D1*
X20045Y20163D1*
X20501Y20619D2*
X20504Y20543D1*
X20517Y20467D1*
X20548Y20391D1*
X20598Y20315D1*
X20661Y20239D1*
X20729Y20163D1*
X20691Y20087D1*
X20659Y20011D1*
X20630Y19935D1*
X20609Y19859D1*
X20598Y19783D1*
X20624Y19707D1*
X20663Y19631D1*
X20704Y19555D1*
X20743Y19479D1*
X20776Y19403D1*
X20805Y19327D1*
X21413Y20543D2*
X21355Y20467D1*
X21310Y20391D1*
X21313Y20315D1*
X21335Y20239D1*
X21375Y20163D1*
X21433Y20087D1*
X21511Y20011D1*
X21608Y19935D1*
X21717Y19859D1*
X21413Y20543D2*
X21489Y20467D1*
X21565Y20391D1*
X20881Y20467D2*
X20840Y20391D1*
X20805Y20315D1*
X20881Y20467D2*
X20921Y20391D1*
X20957Y20315D1*
X22021Y20239D2*
X21889Y20163D1*
X21785Y20087D1*
X21736Y20011D1*
X21689Y19935D1*
X21641Y19859D1*
X22173Y20239D2*
X22345Y20163D1*
X22484Y20087D1*
X22584Y20011D1*
X22657Y19935D1*
X22682Y19859D1*
X22695Y19783D1*
X22700Y19707D1*
X22697Y19631D1*
X22684Y19555D1*
X22625Y19479D1*
X22553Y19403D1*
X17689Y20163D2*
Y20087D1*
Y20011D1*
X17841Y20163D2*
X17881Y20087D1*
X17917Y20011D1*
X15637D2*
X15585Y19935D1*
X15536Y19859D1*
X15524Y19783D1*
X15555Y19707D1*
X15589Y19631D1*
X15613Y19555D1*
X15627Y19479D1*
X15636Y19403D1*
X15650Y19327D1*
X15677Y19251D1*
X15713Y19175D1*
X15789Y20011D2*
X15840Y19935D1*
X15889Y19859D1*
X15902Y19783D1*
X15871Y19707D1*
X15836Y19631D1*
X15812Y19555D1*
X15802Y19479D1*
X15801Y19403D1*
X15830Y19327D1*
X15865Y19251D1*
X21717Y20087D2*
X21807Y20011D1*
X21909Y19935D1*
X22021Y19859D1*
Y20087D2*
X22007Y20011D1*
X21980Y19935D1*
X21945Y19859D1*
X22097Y20087D2*
X22111Y20011D1*
X22137Y19935D1*
X22173Y19859D1*
X22026Y19783D1*
X21869Y19707D1*
X22097Y19631D1*
X22173Y20087D2*
X22298Y20011D1*
X22399Y19935D1*
X22480Y19859D1*
X22553Y19783D1*
X22187Y19707D1*
X21793Y19631D1*
X20957Y20011D2*
X20881Y19935D1*
X20805Y19859D1*
X20918Y19783D1*
X21020Y19707D1*
X21071Y19631D1*
X21086Y19555D1*
X21072Y19479D1*
X21053Y19403D1*
X21033Y19327D1*
Y20011D2*
X21109Y19935D1*
X21185Y19859D1*
X21261Y19783D1*
X21340Y19707D1*
X21432Y19631D1*
X21550Y19555D1*
X21701Y19479D1*
X21869Y19403D1*
X16245Y19859D2*
X16172Y19783D1*
X16109Y19707D1*
X16064Y19631D1*
X16034Y19555D1*
X16033Y19479D1*
X16065Y19403D1*
X16115Y19327D1*
X16177Y19251D1*
X16245Y19175D1*
X16549Y19859D2*
X16639Y19783D1*
X16741Y19707D1*
X16853Y19631D1*
Y19859D2*
X16839Y19783D1*
X16812Y19707D1*
X16777Y19631D1*
X17385Y19859D2*
X17449Y19783D1*
X17503Y19707D1*
X17544Y19631D1*
X17574Y19555D1*
X17565Y19479D1*
X17539Y19403D1*
X17501Y19327D1*
X17400Y19251D1*
X17271Y19175D1*
X17152Y19099D1*
X17060Y19023D1*
X17029Y18947D1*
X17005Y18871D1*
X17765Y19859D2*
Y19783D1*
Y19707D1*
Y19631D1*
Y19555D1*
Y19479D1*
Y19403D1*
Y19327D1*
Y19251D1*
Y19175D1*
X17841Y19859D2*
Y19783D1*
Y19707D1*
Y19631D1*
Y19555D1*
Y19479D1*
Y19403D1*
Y19327D1*
Y19251D1*
Y19175D1*
X18221Y19859D2*
X18139Y19783D1*
X18076Y19707D1*
X18035Y19631D1*
X18008Y19555D1*
X18012Y19479D1*
X18033Y19403D1*
X18074Y19327D1*
X18140Y19251D1*
X18221Y19175D1*
X18525Y19859D2*
X18601Y19783D1*
X18677Y19859D2*
X18601Y19783D1*
X18829Y19859D2*
Y19783D1*
Y19707D1*
X18830Y19631D1*
X18838Y19555D1*
X18859Y19479D1*
X18948Y19403D1*
X19057Y19327D1*
X19209Y19859D2*
Y19783D1*
X19208Y19707D1*
X19205Y19631D1*
X19195Y19555D1*
X19139Y19479D1*
X18996Y19403D1*
X18829Y19327D1*
X19285Y19859D2*
Y19783D1*
Y19707D1*
Y19631D1*
Y19555D1*
Y19479D1*
Y19403D1*
Y19327D1*
Y19251D1*
Y19175D1*
X19589Y19859D2*
X19528Y19783D1*
X19478Y19707D1*
X19465Y19631D1*
X19502Y19555D1*
X19612Y19479D1*
X19741Y19403D1*
X19579Y19327D1*
X19437Y19251D1*
X19513Y19175D1*
X19893Y19859D2*
X19933Y19783D1*
X19969Y19707D1*
X19665Y19631D1*
X19796Y19555D1*
X19899Y19479D1*
X19941Y19403D1*
X19949Y19327D1*
X19925Y19251D1*
X19893Y19175D1*
X16397Y19783D2*
X16324Y19707D1*
X16264Y19631D1*
X16219Y19555D1*
X16226Y19479D1*
X16286Y19403D1*
X16372Y19327D1*
X16473Y19251D1*
X16397Y19783D2*
X16469Y19707D1*
X16530Y19631D1*
X16575Y19555D1*
X16568Y19479D1*
X16508Y19403D1*
X16422Y19327D1*
X16321Y19251D1*
X17005Y19707D2*
X17006Y19631D1*
X17010Y19555D1*
X17045Y19479D1*
X17164Y19403D1*
X17309Y19327D1*
Y19707D2*
X17368Y19631D1*
X17409Y19555D1*
X17437Y19479D1*
X17231Y19403D1*
X17005Y19327D1*
X18297Y19707D2*
X18239Y19631D1*
X18195Y19555D1*
X18202Y19479D1*
X18262Y19403D1*
X18348Y19327D1*
X18449Y19251D1*
X18677Y19707D2*
Y19631D1*
X18680Y19555D1*
X18690Y19479D1*
X18711Y19403D1*
X18742Y19327D1*
X18783Y19251D1*
X18829Y19175D1*
X15941Y19327D2*
X15865Y19251D1*
X16777Y19403D2*
X16701Y19327D1*
X16625Y19251D1*
X16549Y19175D1*
X16853Y19403D2*
Y19327D1*
Y19251D1*
Y19175D1*
Y19099D1*
Y19023D1*
Y18947D1*
Y18871D1*
X18449Y19327D2*
X18373Y19251D1*
X18601Y19327D2*
X18565Y19251D1*
X18525Y19175D1*
X15941Y19251D2*
Y19175D1*
X19133Y19251D2*
X19057Y19175D1*
X19133Y19251D2*
X19209Y19175D1*
X23596Y11842D2*
D34*
Y11890D1*
X23644Y11988D1*
X23692Y12036D1*
X23790Y12084D1*
X23984D1*
X24081Y12036D1*
X24129Y11988D1*
X24178Y11890D1*
Y11793D1*
X24129Y11696D1*
X24032Y11551D1*
X23546Y11064D1*
X24227D1*
X24832Y12084D2*
X24686Y12036D1*
X24589Y11890D1*
X24540Y11647D1*
Y11501D1*
X24589Y11259D1*
X24686Y11113D1*
X24832Y11064D1*
X24929D1*
X25075Y11113D1*
X25172Y11259D1*
X25221Y11501D1*
Y11647D1*
X25172Y11890D1*
X25075Y12036D1*
X24929Y12084D1*
X24832D1*
X25172Y11890D2*
X24589Y11259D1*
X25535Y11890D2*
X25632Y11939D1*
X25778Y12084D1*
Y11064D1*
X26675Y11939D2*
X26627Y12036D1*
X26481Y12084D1*
X26384D1*
X26238Y12036D1*
X26140Y11890D1*
X26092Y11647D1*
Y11405D1*
X26140Y11210D1*
X26238Y11113D1*
X26384Y11064D1*
X26432D1*
X26577Y11113D1*
X26675Y11210D1*
X26723Y11356D1*
Y11405D1*
X26675Y11551D1*
X26577Y11647D1*
X26432Y11696D1*
X26384D1*
X26238Y11647D1*
X26140Y11551D1*
X26092Y11405D1*
X10992Y12085D2*
Y11259D1*
X11040Y11114D1*
X11138Y11064D1*
X11235D1*
X10846Y11745D2*
X11186D1*
X11791D2*
X11694Y11697D1*
X11597Y11599D1*
X11548Y11453D1*
Y11356D1*
X11597Y11210D1*
X11694Y11114D1*
X11791Y11064D1*
X11937D1*
X12035Y11114D1*
X12131Y11210D1*
X12181Y11356D1*
Y11453D1*
X12131Y11599D1*
X12035Y11697D1*
X11937Y11745D1*
X11791D1*
X12494D2*
Y10724D1*
Y11599D2*
X12592Y11696D1*
X12689Y11745D1*
X12835D1*
X12932Y11696D1*
X13029Y11599D1*
X13078Y11453D1*
Y11355D1*
X13029Y11210D1*
X12932Y11113D1*
X12835Y11064D1*
X12689D1*
X12592Y11113D1*
X12494Y11210D1*
X13392Y12085D2*
X13440Y12037D1*
X13490Y12085D1*
X13440Y12135D1*
X13392Y12085D1*
X13440Y11745D2*
Y11064D1*
X14388Y11599D2*
X14290Y11697D1*
X14192Y11745D1*
X14047D1*
X13950Y11697D1*
X13853Y11599D1*
X13804Y11453D1*
Y11356D1*
X13853Y11210D1*
X13950Y11114D1*
X14047Y11064D1*
X14192D1*
X14290Y11114D1*
X14388Y11210D1*
X14944Y11745D2*
X14847Y11697D1*
X14750Y11599D1*
X14701Y11453D1*
Y11356D1*
X14750Y11210D1*
X14847Y11114D1*
X14944Y11064D1*
X15090D1*
X15188Y11114D1*
X15284Y11210D1*
X15334Y11356D1*
Y11453D1*
X15284Y11599D1*
X15188Y11697D1*
X15090Y11745D1*
X14944D1*
X15647D2*
Y11064D1*
Y11551D2*
X15793Y11697D1*
X15891Y11745D1*
X16036D1*
X16134Y11697D1*
X16182Y11551D1*
Y11064D1*
X16884Y12085D2*
X16788D1*
X16690Y12037D1*
X16642Y11891D1*
Y11064D1*
X16496Y11745D2*
X16836D1*
M02*
